<svg t="1779722441246" class="icon" viewBox="0 0 1024 1024" version="1.1" xmlns="http://www.w3.org/2000/svg" p-id="18227" width="200" height="200"><path d="M622.364444 509.724444l-169.528888 101.262223c-12.515556 7.964444-15.928889 23.893333-9.102223 36.408889 7.964444 12.515556 23.893333 15.928889 36.408889 9.102222l168.391111-102.4c12.515556-7.964444 15.928889-23.893333 9.102223-36.408889-6.826667-11.377778-23.893333-15.928889-35.271112-7.964445z" fill="#8AC9FF" p-id="18228"></path><path d="M512 0C228.693333 0 0 228.693333 0 512s228.693333 512 512 512 512-228.693333 512-512S795.306667 0 512 0z m302.648889 588.231111L436.906667 814.648889c-22.755556 13.653333-52.337778 5.688889-65.991111-15.928889l-40.96-68.266667c44.373333-26.168889 58.026667-83.057778 31.857777-127.431111s-83.057778-58.026667-127.431111-31.857778L193.422222 500.622222c-13.653333-22.755556-5.688889-52.337778 17.066667-64.853333l377.742222-225.28c22.755556-13.653333 52.337778-5.688889 64.853333 15.928889l40.96 68.266666c-44.373333 26.168889-58.026667 83.057778-31.857777 127.431112s83.057778 58.026667 127.431111 31.857777l40.96 68.266667c13.653333 23.893333 5.688889 52.337778-15.928889 65.991111z" fill="#8AC9FF" p-id="18229"></path><path d="M575.715556 380.017778c-7.964444-12.515556-23.893333-15.928889-36.408889-9.102222l-169.528889 101.262222c-12.515556 7.964444-15.928889 23.893333-9.102222 36.408889 7.964444 12.515556 23.893333 15.928889 36.408888 9.102222l169.528889-101.262222c12.515556-7.964444 15.928889-23.893333 9.102223-36.408889z" fill="#8AC9FF" p-id="18230"></path></svg>