<svg t="1779720332968" class="icon" viewBox="0 0 1024 1024" version="1.1" xmlns="http://www.w3.org/2000/svg" p-id="12343" width="200" height="200"><path d="M103.8 781v49.2c0 27.2 22 49.2 49.2 49.2h724c27.2 0 49.2-22 49.2-49.2V781H103.8z" p-id="12344"></path><path d="M442.813767 512.63244a102.2 102.2 0 1 0 144.530104-144.535148 102.2 102.2 0 1 0-144.530104 144.535148Z" p-id="12345"></path><path d="M131.8 726.8h766.6c15.4 0 27.9-12.5 27.9-27.9V557.2h-1c-52.6 0-95.2-52.3-95.2-116.8s42.6-116.8 95.2-116.8h1V181.9c0-15.4-12.5-27.9-27.9-27.9H131.8c-15.4 0-27.9 12.5-27.9 27.9v141.8c1.3-0.1 2.7-0.1 4-0.1 52.6 0 95.2 52.3 95.2 116.8s-42.6 116.8-95.2 116.8c-1.3 0-2.7 0-4-0.1v141.8c-0.1 15.4 12.4 27.9 27.9 27.9z m172.9-316.4l47.2-16.8c14.4-5.1 21.3-21.6 14.7-35.5l-21.5-45.2c12.1-16.1 26.3-30.3 42.4-42.4l45.2 21.5c13.8 6.6 30.3-0.3 35.5-14.7l16.8-47.2c9.8-1.4 19.8-2.1 30-2.1s20.2 0.7 30 2.1l16.8 47.2c5.1 14.4 21.6 21.3 35.5 14.7l45.2-21.5c16.1 12.1 30.3 26.3 42.4 42.4l-21.5 45.2c-6.6 13.8 0.3 30.3 14.7 35.5l47.2 16.8c1.4 9.8 2.1 19.8 2.1 30s-0.7 20.2-2.1 30l-47.2 16.8c-14.4 5.1-21.3 21.6-14.7 35.5l21.5 45.2c-12.1 16.1-26.3 30.3-42.4 42.4l-45.2-21.5c-13.8-6.6-30.3 0.3-35.5 14.7L545 650.7c-9.8 1.4-19.8 2.1-30 2.1s-20.2-0.7-30-2.1l-16.8-47.2c-5.1-14.4-21.6-21.3-35.5-14.7l-45.2 21.5c-16.1-12.1-30.3-26.3-42.4-42.4l21.5-45.2c6.6-13.8-0.3-30.3-14.7-35.5l-47.2-16.8c-1.4-9.8-2.1-19.8-2.1-30s0.8-20.2 2.1-30z" p-id="12346"></path></svg>