<svg t="1779729586651" class="icon" viewBox="0 0 1057 1024" version="1.1" xmlns="http://www.w3.org/2000/svg" p-id="34870" width="200" height="200"><path d="M351.423109 78.135148A41.539375 41.539375 0 0 0 368.869646 22.056993 41.539375 41.539375 0 0 0 312.376097 5.025849 653.414362 653.414362 0 0 0 2.492362 367.664589a41.539375 41.539375 0 0 0 25.339019 52.755006 41.539375 41.539375 0 0 0 13.707994 2.492362 41.539375 41.539375 0 0 0 39.047012-27.831381 571.997188 571.997188 0 0 1 270.836722-316.945428z" fill="#8A8A8A" p-id="34871"></path><path d="M604.813294 120.089917a451.948395 451.948395 0 1 0 451.948395 451.533001A451.533002 451.533002 0 0 0 604.813294 120.089917z m262.528847 565.766281h-298.668103a41.539375 41.539375 0 0 1-41.539375-41.539374V340.663996a41.539375 41.539375 0 0 1 83.07875 0v262.113453h257.128728a41.539375 41.539375 0 0 1 0 83.078749z" fill="#8A8A8A" p-id="34872"></path></svg>