<svg t="1779722122936" class="icon" viewBox="0 0 1024 1024" version="1.1" xmlns="http://www.w3.org/2000/svg" p-id="15309" width="200" height="200"><path d="M270.450314 369.831447h483.018868V426.666667h-483.018868zM270.450314 540.498113h483.018868v56.83522h-483.018868zM270.450314 711.16478h483.018868v56.915723h-483.018868z" p-id="15310"></path><path d="M924.135849 85.333333H753.549686V0h-483.018868v85.333333h-170.666667A85.574843 85.574843 0 0 0 14.611321 170.666667v768a85.574843 85.574843 0 0 0 85.25283 85.333333h824.271698a85.574843 85.574843 0 0 0 85.25283-85.333333V170.666667a85.574843 85.574843 0 0 0-85.25283-85.333334zM329.459119 56.83522h367.255346V170.666667H329.459119z m623.013837 867.58239a42.74717 42.74717 0 0 1-42.666667 42.666667H114.193711a42.74717 42.74717 0 0 1-42.666667-42.666667V184.915723a42.74717 42.74717 0 0 1 42.666667-42.666666h156.256603v85.333333h483.018868v-85.333333h156.337107a42.74717 42.74717 0 0 1 42.666667 42.666666z" p-id="15311"></path></svg>