<svg viewBox="0 0 1040 1024" xmlns="http://www.w3.org/2000/svg">
<path d="M713.6 451.2h-144c-19.2 0-35.2 16-35.2 35.2v144c0 19.2 16 35.2 35.2 35.2h144c19.2 0 35.2-16 35.2-35.2v-144c0-19.2-16-35.2-35.2-35.2zM275.2 233.6H640c19.2 0 35.2-16 35.2-35.2 0-22.4-16-38.4-35.2-38.4H275.2c-19.2 0-35.2 19.2-35.2 38.4S256 233.6 275.2 233.6z m-35.2 256c0 19.2 16 35.2 35.2 35.2h163.2c19.2-28.8 41.6-51.2 67.2-73.6H275.2c-19.2 0-35.2 16-35.2 38.4z m0-147.2c0 19.2 16 35.2 35.2 35.2H640c19.2 0 35.2-16 35.2-35.2 0-19.2-16-35.2-35.2-35.2H275.2c-19.2 0-35.2 16-35.2 35.2z m764.8 108.8h-144c-19.2 0-35.2 16-35.2 35.2v144c0 19.2 16 35.2 35.2 35.2h144c19.2 0 35.2-16 35.2-35.2v-144c0-19.2-16-35.2-35.2-35.2z m0 291.2h-144c-19.2 0-35.2 16-35.2 35.2v144c0 19.2 16 35.2 35.2 35.2h144c19.2 0 35.2-16 35.2-35.2v-144c0-19.2-16-35.2-35.2-35.2z m-182.4-342.4V89.6c0-41.6-32-73.6-73.6-73.6H166.4C128 16 96 48 96 89.6v800L230.4 800l118.4 89.6 64-51.2c-12.8-28.8-19.2-57.6-22.4-89.6l-41.6 28.8-99.2-76.8L169.6 768V144c0-28.8 25.6-54.4 54.4-54.4h473.6c28.8 0 54.4 25.6 54.4 54.4V384c22.4 0 48 6.4 70.4 16z m-108.8 342.4h-144c-19.2 0-35.2 16-35.2 35.2v144c0 19.2 16 35.2 35.2 35.2h144c19.2 0 35.2-16 35.2-35.2v-144c0-19.2-16-35.2-35.2-35.2z"/>
</svg>
