<?xml version="1.0" standalone="no"?><!DOCTYPE svg PUBLIC "-//W3C//DTD SVG 1.1//EN" "http://www.w3.org/Graphics/SVG/1.1/DTD/svg11.dtd"><svg t="1779714876398" class="icon" viewBox="0 0 1024 1024" version="1.1" xmlns="http://www.w3.org/2000/svg" p-id="2877" xmlns:xlink="http://www.w3.org/1999/xlink" width="200" height="200"><path d="M368.853333 42.666667a149.397333 149.397333 0 0 0 286.293334 0H853.333333a42.666667 42.666667 0 0 1 42.666667 42.666666v853.333334a42.666667 42.666667 0 0 1-42.666667 42.666666h-171.989333v-0.021333H655.146667a149.397333 149.397333 0 0 0-286.293334 0h-26.197333V981.333333H170.666667a42.666667 42.666667 0 0 1-42.666667-42.666666V85.333333a42.666667 42.666667 0 0 1 42.666667-42.666666h198.186666zM832 106.666667l-135.232 0.042666A213.248 213.248 0 0 1 512 213.333333c-78.933333 0-147.882667-42.88-184.768-106.624L192 106.666667v469.333333h64v64H192v277.333333h135.210667c36.906667-63.786667 105.813333-106.666667 184.789333-106.666666a213.248 213.248 0 0 1 184.789333 106.666666H832V640h-64v-64h64V106.666667zM469.333333 576v64h-128v-64h128z m213.333334 0v64h-128v-64h128z" fill="#4E4E4E" p-id="2878"></path></svg>